<svg width="40" height="41" viewBox="0 0 40 41" fill="none" xmlns="http://www.w3.org/2000/svg">
<g clip-path="url(#clip0_25_565)">
<circle cx="19.8022" cy="19.9133" r="19.5" fill="#191414"/>
<path d="M19.9991 0.177032C8.98745 0.177032 0.0603027 9.10393 0.0603027 20.1156C0.0603027 31.1277 8.98745 40.0539 19.9991 40.0539C31.012 40.0539 39.9382 31.1277 39.9382 20.1156C39.9382 9.10465 31.012 0.177985 19.9989 0.177985L19.9991 0.177032ZM29.1429 28.9342C28.7858 29.5199 28.0191 29.7056 27.4334 29.3461C22.752 26.4865 16.8586 25.8389 9.91816 27.4246C9.24935 27.577 8.58269 27.158 8.4303 26.4889C8.27721 25.8199 8.69459 25.1532 9.36507 25.0008C16.9603 23.2649 23.4753 24.0127 28.731 27.2246C29.3167 27.5842 29.5025 28.3485 29.1429 28.9342ZM31.5834 23.5044C31.1334 24.2365 30.1763 24.4675 29.4453 24.0175C24.0858 20.7225 15.916 19.7685 9.57673 21.6927C8.75459 21.9411 7.88626 21.4777 7.63673 20.657C7.38911 19.8349 7.85269 18.9682 8.6734 18.7182C15.9146 16.5211 24.9167 17.5854 31.0715 21.3675C31.8024 21.8175 32.0334 22.7746 31.5834 23.5046V23.5044ZM31.7929 17.8511C25.3667 14.0342 14.7644 13.6832 8.62888 15.5454C7.64364 15.8442 6.60173 15.288 6.30316 14.3027C6.00459 13.317 6.5603 12.2758 7.54626 11.9763C14.5894 9.83822 26.2977 10.2513 33.6963 14.6435C34.5844 15.1694 34.8748 16.3139 34.3486 17.1989C33.8248 18.0851 32.6772 18.3773 31.7939 17.8511H31.7929Z" fill="#1ED760"/>
</g>
<defs>
<clipPath id="clip0_25_565">
<rect width="40" height="40" fill="white" transform="translate(0 0.111084)"/>
</clipPath>
</defs>
</svg>
